<svg width="155" height="123" viewBox="0 0 155 123" fill="none" xmlns="http://www.w3.org/2000/svg">
<g clip-path="url(#clip0_40_4)">
<path d="M19.4222 91.1481L25.0785 108.356L29.4741 91.1481H34.2444L27.4637 115H22.8296L17.3096 98.0993L11.7556 115H7.12147L0.340729 91.1481H5.28147L9.67703 108.39L15.3333 91.1481H19.4222ZM32.9443 110.059C32.9443 106.89 35.091 105.084 38.8391 104.812L44.0184 104.437V103.756C44.0184 102.018 42.8599 100.961 40.7813 100.961C39.1799 100.961 37.6806 101.473 36.1132 102.529L34.2391 99.36C36.2836 97.8607 38.6347 97.0089 41.3265 97.0089C45.5517 97.0089 48.3458 99.4622 48.3458 103.21V110.127C48.3458 110.775 48.6865 111.15 49.3339 111.15H50.2539V115H48.1754C46.4717 115 45.1769 114.216 44.5636 112.921C43.3369 114.489 41.3947 115.443 39.0436 115.443C35.5339 115.443 32.9443 113.16 32.9443 110.059ZM37.2036 110.025C37.2036 111.252 38.3621 112.036 40.0317 112.036C42.2465 112.036 44.0184 110.604 44.0184 108.833V107.708L39.4525 108.117C37.9532 108.253 37.2036 108.867 37.2036 110.025ZM51.6142 97.3837H56.0439V99.0533C57.6113 97.7244 59.5876 96.9407 61.7342 96.9407C66.9816 96.9407 71.1387 101.132 71.1387 106.209C71.1387 111.32 66.9816 115.477 61.7342 115.477C59.5876 115.477 57.6453 114.693 56.0779 113.399V122.156H51.6142V97.3837ZM56.0098 106.209C56.0098 109.207 58.395 111.559 61.3594 111.559C64.2898 111.559 66.7091 109.207 66.7091 106.209C66.7091 103.244 64.2898 100.825 61.3594 100.825C58.395 100.825 56.0098 103.244 56.0098 106.209ZM75.1435 95.5096C73.7464 95.5096 72.622 94.4193 72.622 93.0222C72.622 91.6252 73.7464 90.5689 75.1435 90.5689C76.5405 90.5689 77.5968 91.6252 77.5968 93.0222C77.5968 94.4193 76.5405 95.5096 75.1435 95.5096ZM77.3583 97.3837V115H72.8946V97.3837H77.3583ZM86.8207 115C83.6178 115 81.9822 113.092 81.9822 110.57V101.234H78.5407V97.3837H81.9822V92.2726H86.4118V97.3837H90.2963V101.234H86.4118V109.787C86.4118 110.707 87.0593 111.15 88.0815 111.15H90.2963V115H86.8207ZM93.779 95.5096C92.382 95.5096 91.2576 94.4193 91.2576 93.0222C91.2576 91.6252 92.382 90.5689 93.779 90.5689C95.1761 90.5689 96.2324 91.6252 96.2324 93.0222C96.2324 94.4193 95.1761 95.5096 93.779 95.5096ZM95.9939 97.3837V115H91.5302V97.3837H95.9939Z" fill="#BAFF66"/>
<path d="M106.048 115C104.544 115 103.776 114.104 103.776 112.92V108.536H102.16V106.728H103.776V104.328H105.856V106.728H107.68V108.536H105.856V112.552C105.856 112.984 106.16 113.192 106.64 113.192H107.68V115H106.048ZM112.867 108.568H112.115C111.123 108.568 110.355 109.288 110.355 110.552V115H108.259V106.728H110.339V107.624C110.755 107.016 111.411 106.648 112.307 106.648H112.867V108.568ZM112.556 112.68C112.556 111.192 113.564 110.344 115.324 110.216L117.756 110.04V109.72C117.756 108.904 117.212 108.408 116.236 108.408C115.484 108.408 114.78 108.648 114.044 109.144L113.164 107.656C114.124 106.952 115.228 106.552 116.492 106.552C118.476 106.552 119.788 107.704 119.788 109.464V112.712C119.788 113.016 119.948 113.192 120.252 113.192H120.684V115H119.708C118.908 115 118.3 114.632 118.012 114.024C117.436 114.76 116.524 115.208 115.42 115.208C113.772 115.208 112.556 114.136 112.556 112.68ZM114.556 112.664C114.556 113.24 115.1 113.608 115.884 113.608C116.924 113.608 117.756 112.936 117.756 112.104V111.576L115.612 111.768C114.908 111.832 114.556 112.12 114.556 112.664ZM122.379 105.848C121.723 105.848 121.195 105.336 121.195 104.68C121.195 104.024 121.723 103.528 122.379 103.528C123.035 103.528 123.531 104.024 123.531 104.68C123.531 105.336 123.035 105.848 122.379 105.848ZM123.419 106.728V115H121.323V106.728H123.419ZM132.166 109.736V115H130.07V110.152C130.07 109.08 129.382 108.376 128.358 108.376C127.35 108.376 126.63 109.048 126.63 110.152V115H124.534V106.728H126.63V107.432C127.206 106.84 128.006 106.504 128.902 106.504C130.838 106.504 132.166 107.928 132.166 109.736ZM134.348 105.848C133.692 105.848 133.164 105.336 133.164 104.68C133.164 104.024 133.692 103.528 134.348 103.528C135.004 103.528 135.5 104.024 135.5 104.68C135.5 105.336 135.004 105.848 134.348 105.848ZM135.388 106.728V115H133.292V106.728H135.388ZM144.135 109.736V115H142.039V110.152C142.039 109.08 141.351 108.376 140.327 108.376C139.319 108.376 138.599 109.048 138.599 110.152V115H136.503V106.728H138.599V107.432C139.175 106.84 139.975 106.504 140.871 106.504C142.807 106.504 144.135 107.928 144.135 109.736ZM154.013 106.728V115.32C154.013 117.144 152.781 118.36 150.893 118.36H148.573V116.6H150.413C151.405 116.6 151.917 116.088 151.917 115.16V114.152C151.197 114.728 150.301 115.08 149.325 115.08C146.909 115.08 144.973 113.176 144.973 110.792C144.973 108.408 146.925 106.504 149.325 106.504C150.301 106.504 151.213 106.856 151.933 107.448V106.728H154.013ZM147.053 110.792C147.053 112.152 148.141 113.24 149.501 113.24C150.877 113.24 151.949 112.152 151.949 110.792C151.949 109.416 150.861 108.328 149.501 108.328C148.157 108.328 147.053 109.432 147.053 110.792Z" fill="#BAFF66"/>
<path d="M40.1688 62.4492C38.9282 63.2845 38.7478 64.7696 37.8516 65.8866C37.0881 65.4232 36.523 64.8005 35.9656 64.1737C33.8647 61.8112 32.2805 59.1037 30.7641 56.3508C28.9677 53.0895 27.3841 49.7085 25.2922 46.613C24.517 45.4659 23.6652 44.3851 22.6172 43.4746C21.5739 42.5682 20.4127 41.9256 18.979 41.9225C18.5802 41.9216 18.2274 41.8737 18.1891 41.328C18.0948 39.9826 17.9432 38.6402 18.0219 37.2885C18.1093 35.7849 18.9071 35.1873 20.3753 35.5624C21.3181 35.8033 22.1774 36.259 23.0221 36.7344C25.1319 37.9216 27.5591 36.4702 27.5177 34.0142C27.4872 32.2009 26.7326 30.599 25.8776 29.0536C24.9677 27.4088 23.9269 25.8442 22.7469 24.3794C22.3989 23.9475 22.2837 23.561 22.525 23.0196C22.7244 22.5723 22.7446 22.0575 22.7844 21.5561C22.8996 20.1053 23.576 19.3835 24.9165 19.3722C27.5141 19.3502 29.9752 19.7605 32.0545 21.5506C33.8234 23.0735 36.055 23.6036 38.2626 24.0829C41.8285 24.8571 44.9097 26.4899 47.5023 29.0531C47.9341 29.4801 48.442 29.7531 49.0376 29.8505C52.3909 30.3988 55.1565 32.1043 57.6959 34.253C58.4233 34.8685 59.1364 35.501 59.7601 36.2258C58.2001 33.4469 55.8499 31.5428 53.0414 30.1494C52.7266 29.9932 52.4104 29.7983 52.0736 29.7356C50.7708 29.4933 50.1479 28.5256 49.558 27.4937C47.2332 23.4273 45.6174 19.0992 45.0601 14.4425C44.7214 11.6129 44.7252 8.763 45.8005 6.02446C46.8278 3.40787 48.6082 1.52458 51.1445 0.341773C51.1977 0.316989 51.25 0.286578 51.3061 0.272705C51.7664 0.158934 52.3518 -0.279653 52.6576 0.273022C52.9826 0.860435 52.3026 1.10396 51.9076 1.35327C48.7825 3.32604 47.5838 6.1562 48.1149 9.77596C48.2698 10.8321 48.3517 11.9043 48.831 12.9038C49.3186 12.7103 49.3696 12.2919 49.5473 11.9751C50.5921 10.1121 52.1919 9.02656 54.2631 8.63585C54.6215 8.56825 55.1813 8.33514 55.3526 8.84094C55.524 9.34678 54.9685 9.48762 54.6174 9.66537C53.2942 10.3353 52.0974 11.1194 51.3016 12.4496C50.1919 14.3045 50.0624 16.3285 50.4098 18.3327C51.3068 23.5078 53.8682 27.8134 57.6499 31.4153C57.8189 31.5763 58.003 31.7273 58.1993 31.8528C58.8739 32.2841 59.3022 32.0696 59.3848 31.2576C59.4575 30.5428 59.2345 29.8642 59.1002 29.1756C58.0073 23.571 58.3799 18.1343 61.0979 13.0162C63.4099 8.66235 67.0957 6.05894 71.8312 4.87499C72.0008 4.83259 72.1782 4.79047 72.3503 4.7964C72.6393 4.80635 72.9806 4.79863 73.0689 5.16103C73.1437 5.46794 72.8981 5.6477 72.6691 5.77919C71.7542 6.30426 70.8149 6.78823 69.914 7.3358C65.0671 10.2818 62.5983 14.6017 62.4462 20.2761C62.3447 24.0618 63.2653 27.6511 64.4413 31.1968C64.5711 31.5881 64.8075 31.9357 65.1222 32.2107C65.727 32.7391 66.4113 32.645 66.8385 31.9652C67.124 31.511 67.2213 30.9975 67.2959 30.466C67.9189 26.0256 69.1497 21.8076 71.9392 18.191C74.4666 14.9142 77.8232 13.0615 81.9012 12.4988C82.3893 12.4315 82.8977 12.4015 83.3813 12.5799C83.6669 12.6852 83.9194 12.8338 83.9355 13.1857C83.951 13.5259 83.7408 13.7328 83.4709 13.8729C83.2914 13.966 83.0883 14.0175 82.8915 14.0723C77.2222 15.6514 73.9873 19.6516 72.1306 24.9826C71.4224 27.016 71.2744 29.1028 71.9414 31.1975C72.5411 33.0806 73.8157 34.3575 75.571 35.1623C79.9545 37.1723 83.8419 36.1529 86.741 32.2302C88.2917 30.1321 89.7312 27.9552 91.4951 26.0151C94.9928 22.1681 99.1726 19.3304 103.975 17.3889C105.578 16.7408 107.197 16.1284 108.889 15.7509C109.43 15.6301 110.227 15.3116 110.456 15.9566C110.673 16.5667 109.852 16.8118 109.376 17.0151C106.652 18.1798 103.937 19.3606 101.428 20.955C98.7347 22.6672 96.2284 24.5942 94.6551 27.4672C92.4927 31.4161 93.844 35.3194 97.9585 37.1332C100.9 38.43 103.931 38.4695 106.998 37.7476C112.799 36.382 117.856 33.5933 122.304 29.6506C123.892 28.2432 125.283 26.6639 126.566 24.9807C126.847 24.612 127.153 24.1047 127.69 24.3974C128.253 24.704 128.058 25.2763 127.858 25.7353C126.71 28.3613 124.965 30.5456 122.874 32.4808C122.519 32.8099 121.783 33.0807 122.065 33.678C122.33 34.2372 122.979 33.8332 123.439 33.7742C127.674 33.2306 130.806 30.8026 133.577 27.7708C134.051 27.2516 134.505 26.7132 134.994 26.2083C135.22 25.975 135.512 25.7877 135.858 26.0005C136.179 26.198 136.205 26.5251 136.172 26.8573C136.131 27.2773 135.911 27.6286 135.721 27.9935C133.251 32.7391 129.261 35.4463 124.159 36.6997C122.968 36.9925 121.791 37.3525 120.665 37.8712C117.713 39.2307 116.834 42.4907 118.728 45.1456C120.092 47.0585 121.986 48.3378 123.979 49.4775C127.695 51.6033 131.687 53.0313 135.831 54.0555C136.059 54.1117 136.287 54.1657 136.513 54.2253C137.067 54.3711 137.067 54.6676 136.73 55.0481C136.38 55.443 136.02 55.8284 135.677 56.2293C134.968 57.0583 134.887 57.954 135.392 58.9206C135.721 59.5491 136.147 60.1067 136.572 60.6676C136.761 60.9168 137.006 61.1393 137 61.5353C136.284 61.6827 135.643 61.4328 135.003 61.2971C127.025 59.6043 120.783 55.31 116.098 48.6638C115.158 47.3303 114.309 45.9021 112.812 45.0507C112.024 44.6027 111.186 44.2949 110.312 44.3041C103.288 44.3783 96.5609 42.6235 89.8109 41.0208C83.5205 39.5272 77.1569 39.0708 70.7076 39.3711C68.6675 39.4661 66.6097 39.2904 64.5591 39.3517C64.4457 39.3551 64.3327 39.3725 64.2187 39.4146C66.8813 39.551 69.5251 39.778 72.1269 40.4079C75.0951 41.1266 77.8209 42.3576 80.3847 44.0057C82.1943 45.1689 83.9069 46.5354 86.1581 46.9584C85.9754 47.4902 85.5935 47.7152 85.2561 47.9752C81.53 50.8462 77.2979 51.2915 72.8255 50.56C70.6479 50.2038 68.5538 49.5538 66.5099 48.7296C66.0663 48.5508 65.6238 48.3331 65.0983 48.4248C65.7736 48.9956 66.5467 49.3787 67.3555 49.6721C68.5387 50.1012 69.7357 50.4947 70.9376 50.8686C71.4931 51.0415 71.8867 51.2829 72.1734 51.8553C72.8879 53.2819 74.1981 54.1045 75.5521 54.8302C77.9942 56.139 80.6154 56.9896 83.2671 57.7424C91.5219 60.0859 99.9312 61.8357 108.171 64.2393C116.175 66.5742 124.016 69.3316 131.434 73.1864C132.988 73.9942 134.506 74.8734 136.042 75.7208C135.851 76.1337 135.604 75.9829 135.403 75.9246C131.324 74.7405 127.192 73.7657 123.044 72.8686C118.582 71.9035 114.094 71.0637 109.582 70.352C104.028 69.4759 98.4492 68.8048 92.8554 68.2721C89.7665 67.9779 86.658 67.8958 83.5608 67.6819C77.558 67.2673 71.5472 67.2805 65.5384 67.3867C60.1772 67.4814 54.8276 67.8757 49.4799 68.2636C48.8971 68.3059 48.3129 68.3794 47.7397 68.4915C47.2058 68.5959 46.9756 68.3671 46.881 67.8831C46.808 67.5096 46.7285 67.1358 46.624 66.7701C46.2321 65.3981 46.0186 64.0636 46.6732 62.6693C47.0073 61.9579 47.0464 61.1076 47.2143 60.3405C47.6081 60.3281 47.682 60.682 47.9922 60.7667C48.6964 60.1745 48.8084 59.2114 49.2818 58.4269C50.0384 58.7353 50.0706 59.5977 50.7303 60.1103C52.3752 57.6559 52.9437 54.9158 52.9506 51.9895C54.1805 52.0931 54.438 53.2157 55.3226 53.817C55.4673 52.1573 55.4525 50.6561 54.9554 49.055C54.6693 50.0107 55.0446 50.9158 54.6759 51.7247C54.1218 51.7286 53.8479 51.311 53.4459 51.1455C52.4853 50.7501 52.0928 50.9503 52.1065 51.9803C52.1296 53.7276 51.9094 55.4311 51.374 57.0924C51.2242 57.5572 51.0929 58.0408 50.6723 58.4103C49.96 57.9707 49.5788 57.1348 48.6947 56.9049C48.2668 57.636 48.502 58.5921 47.9206 59.2704C47.4164 59.1001 47.1403 58.605 46.5596 58.4785C46.2041 60.0488 46.3237 61.7272 45.5531 63.3143C43.8726 62.1224 42.1861 61.3197 40.1688 62.4492ZM66.226 47.5364C69.8085 49.0975 73.458 50.0732 77.3925 48.7856C72.7673 48.1346 68.3944 46.8243 64.2546 44.2431C65.2908 44.0254 66.2134 44.4208 67.1248 43.8849C65.8388 42.9994 64.4478 42.5719 63.184 41.5242C69.6398 40.7063 75.3025 42.3114 80.5936 45.5701C74.6769 41.3753 68.1054 40.1184 60.9143 40.9536C61.6536 41.9733 62.7156 42.3401 63.5817 43.0509C62.9637 43.3943 62.4467 42.9483 61.9222 43.1236C62.1383 43.7815 62.8771 44.0092 63.0866 44.7529C62.2348 44.6232 61.4718 44.507 60.7087 44.3907C62.4112 45.6298 64.2243 46.6159 66.226 47.5364ZM54.0329 34.043C53.6606 33.7159 53.1956 33.45 52.9324 33.0508C51.9642 31.5823 50.5723 31.6168 49.1148 31.8943C48.5151 32.0084 47.8227 31.9625 47.3382 32.614C47.9208 33.3281 48.6567 33.1474 49.3429 32.9968C50.2519 32.7974 51.0697 32.8575 51.809 33.4877C52.118 33.7512 52.4679 33.9776 52.8267 34.1694C53.6779 34.6244 54.4835 35.2023 55.6427 35.3578C55.1942 34.6964 54.5716 34.5186 54.0329 34.043ZM41.6974 26.4847C38.9517 24.9754 35.7802 24.6964 32.8107 23.3512C33.397 24.2474 34.1507 24.6788 34.9563 24.9914C37.6802 26.0481 40.5561 26.6089 43.3746 27.4403C42.8555 27.1388 42.3364 26.8373 41.6974 26.4847ZM25.1161 20.8618C25.6185 20.5135 26.2314 20.4581 26.7988 20.2544C25.9408 19.9093 25.0918 19.7945 24.2557 20.2162C23.8786 20.4064 23.7701 20.7846 23.7705 21.1873C23.7707 21.3775 23.8533 21.5411 24.0469 21.5895C24.4616 21.6931 24.5802 21.3116 24.8039 21.1029C24.868 21.0431 24.9391 20.9908 25.1161 20.8618Z" fill="#BAFF66"/>
</g>
<defs>
<clipPath id="clip0_40_4">
<rect width="155" height="123" fill="white"/>
</clipPath>
</defs>
</svg>
